# xmcd
#
# Track frame offsets:
#	150
#	13597
#	29817
#	42387
#	56073
#	68480
#	81766
#	95243
#	111011
#	128125
#	145716
#	155412
#	167770
#	181509
#
# Disc length: 2587 seconds
#
# Revision: 1
# Processed by: cddbd v1.5.1PL0 Copyright (c) Steve Scherf et al.
# Submitted via: EasyCDDAExtractor 6.2.0.3
#
DISCID=b70a190e
DTITLE=Márcia Mara - Tá Virando Moda
DYEAR=2005
DGENRE=Country
TTITLE0=Chorão
TTITLE1=Nem Que Chova Canivete
TTITLE2=Peixe Carimbado
TTITLE3=Ele Vai Ter Que Me Engolir
TTITLE4=Amor Sem Fim
TTITLE5=Ele Pulou Comigo
TTITLE6=Tem Que Ser Pra Valer
TTITLE7=Tá Virando Moda
TTITLE8=Meu Sertão
TTITLE9=Chapéu Do Moreno
TTITLE10=Homem Carente
TTITLE11=Chumbo Trocado
TTITLE12=Passando Na Peneira
TTITLE13=Meu Benzim
EXTD=Ripped by Flávio Abrahão Biasuz
EXTT0=
EXTT1=
EXTT2=
EXTT3=
EXTT4=
EXTT5=
EXTT6=
EXTT7=
EXTT8=
EXTT9=
EXTT10=
EXTT11=
EXTT12=
EXTT13=
PLAYORDER=
